<svg width="872" height="1024" viewBox="0 0 872 1024" fill="none" xmlns="http://www.w3.org/2000/svg">
<g opacity="0.1">
<path d="M368.983 1009.36C368.983 1009.36 608.128 925.394 649.801 793.498C680.737 695.586 578.849 628.994 614.979 532.877C676.509 369.188 1045.88 411.087 1045.88 411.087" stroke="url(#paint0_linear)" stroke-width="2"/>
<path d="M356.357 1003.31C356.357 1003.31 595.502 919.346 637.175 787.45C668.111 689.537 566.222 622.946 602.353 526.829C663.883 363.14 1033.26 405.038 1033.26 405.038" stroke="url(#paint1_linear)" stroke-width="2"/>
<path d="M344.633 997.698C344.633 997.698 583.778 913.729 625.451 781.834C656.387 683.921 554.498 617.329 590.629 521.212C652.159 357.524 1021.53 399.422 1021.53 399.422" stroke="url(#paint2_linear)" stroke-width="2"/>
<path d="M332.007 991.649C332.007 991.649 571.152 907.681 612.825 775.785C643.761 677.873 541.872 611.281 578.003 515.164C639.533 351.475 1008.91 393.374 1008.91 393.374" stroke="url(#paint3_linear)" stroke-width="2"/>
<path d="M321.185 986.465C321.185 986.465 560.329 902.497 602.003 770.601C632.939 672.688 531.05 606.097 567.18 509.98C628.711 346.291 998.085 388.189 998.085 388.189" stroke="url(#paint4_linear)" stroke-width="2"/>
<path d="M308.559 980.417C308.559 980.417 547.703 896.448 589.377 764.552C620.313 666.64 518.424 600.048 554.554 503.931C616.085 340.243 985.459 382.141 985.459 382.141" stroke="url(#paint5_linear)" stroke-width="2"/>
<path d="M296.834 974.8C296.834 974.8 535.979 890.832 577.652 758.936C608.588 661.024 506.7 594.432 542.83 498.315C604.36 334.626 973.735 376.525 973.735 376.525" stroke="url(#paint6_linear)" stroke-width="2"/>
<path d="M284.208 968.752C284.208 968.752 523.353 884.784 565.026 752.888C595.962 654.975 494.074 588.384 530.204 492.267C591.734 328.578 961.109 370.476 961.109 370.476" stroke="url(#paint7_linear)" stroke-width="2"/>
<path d="M274.606 956.39C274.606 956.39 513.751 872.422 555.424 740.526C586.36 642.614 484.472 576.022 520.602 479.905C582.132 316.217 951.507 358.115 951.507 358.115" stroke="url(#paint8_linear)" stroke-width="2"/>
<path d="M261.98 950.342C261.98 950.342 501.125 866.374 542.798 734.478C573.734 636.566 471.846 569.974 507.976 473.857C569.506 310.168 938.881 352.067 938.881 352.067" stroke="url(#paint9_linear)" stroke-width="2"/>
<path d="M250.256 944.726C250.256 944.726 489.401 860.758 531.074 728.862C562.01 630.949 460.121 564.358 496.252 468.241C557.782 304.552 927.157 346.45 927.157 346.45" stroke="url(#paint10_linear)" stroke-width="2"/>
<path d="M237.63 938.677C237.63 938.677 476.775 854.709 518.448 722.813C549.384 624.901 447.495 558.309 483.626 462.192C545.156 298.504 914.531 340.402 914.531 340.402" stroke="url(#paint11_linear)" stroke-width="2"/>
<path d="M226.808 933.493C226.808 933.493 465.952 849.525 507.626 717.629C538.562 619.717 436.673 553.125 472.803 457.008C534.334 293.319 903.708 335.218 903.708 335.218" stroke="url(#paint12_linear)" stroke-width="2"/>
<path d="M214.182 927.445C214.182 927.445 453.326 843.477 495 711.581C525.936 613.668 424.047 547.076 460.177 450.959C521.708 287.271 891.082 329.169 891.082 329.169" stroke="url(#paint13_linear)" stroke-width="2"/>
<path d="M202.458 921.828C202.458 921.828 441.602 837.86 483.275 705.964C514.211 608.052 412.323 541.46 448.453 445.343C509.984 281.655 879.358 323.553 879.358 323.553" stroke="url(#paint14_linear)" stroke-width="2"/>
<path d="M189.832 915.78C189.832 915.78 428.976 831.812 470.649 699.916C501.585 602.004 399.697 535.412 435.827 439.295C497.358 275.606 866.732 317.504 866.732 317.504" stroke="url(#paint15_linear)" stroke-width="2"/>
<path d="M174.5 908.436C174.5 908.436 413.645 824.467 455.318 692.572C486.254 594.659 384.365 528.067 420.495 431.95C482.026 268.262 851.4 310.16 851.4 310.16" stroke="url(#paint16_linear)" stroke-width="2"/>
<path d="M161.874 902.387C161.874 902.387 401.018 818.419 442.692 686.523C473.628 588.611 371.739 522.019 407.869 425.902C469.4 262.213 838.774 304.112 838.774 304.112" stroke="url(#paint17_linear)" stroke-width="2"/>
<path d="M150.15 896.771C150.15 896.771 389.294 812.803 430.968 680.907C461.904 582.994 360.015 516.403 396.145 420.286C457.676 256.597 827.05 298.495 827.05 298.495" stroke="url(#paint18_linear)" stroke-width="2"/>
<path d="M137.524 890.723C137.524 890.723 376.668 806.754 418.341 674.858C449.277 576.946 347.389 510.354 383.519 414.237C445.05 250.549 814.424 292.447 814.424 292.447" stroke="url(#paint19_linear)" stroke-width="2"/>
<path d="M126.701 885.538C126.701 885.538 365.846 801.57 407.519 669.674C438.455 571.762 336.566 505.17 372.697 409.053C434.227 245.364 803.602 287.263 803.602 287.263" stroke="url(#paint20_linear)" stroke-width="2"/>
<path d="M114.075 879.49C114.075 879.49 353.22 795.522 394.893 663.626C425.829 565.713 323.94 499.122 360.071 403.005C421.601 239.316 790.976 281.214 790.976 281.214" stroke="url(#paint21_linear)" stroke-width="2"/>
<path d="M102.351 873.874C102.351 873.874 341.496 789.905 383.169 658.009C414.105 560.097 312.216 493.505 348.347 397.388C409.877 233.7 779.252 275.598 779.252 275.598" stroke="url(#paint22_linear)" stroke-width="2"/>
<path d="M89.7249 867.825C89.7249 867.825 328.87 783.857 370.543 651.961C401.479 554.049 299.59 487.457 335.72 391.34C397.251 227.651 766.625 269.55 766.625 269.55" stroke="url(#paint23_linear)" stroke-width="2"/>
</g>
<defs>
<linearGradient id="paint0_linear" x1="527.711" y1="1085.4" x2="887.156" y2="335.05" gradientUnits="userSpaceOnUse">
<stop stop-color="white"/>
<stop offset="1" stop-color="white" stop-opacity="0.68"/>
</linearGradient>
<linearGradient id="paint1_linear" x1="515.085" y1="1079.35" x2="874.53" y2="329.002" gradientUnits="userSpaceOnUse">
<stop stop-color="white"/>
<stop offset="1" stop-color="white" stop-opacity="0.68"/>
</linearGradient>
<linearGradient id="paint2_linear" x1="503.361" y1="1073.73" x2="862.806" y2="323.385" gradientUnits="userSpaceOnUse">
<stop stop-color="white"/>
<stop offset="1" stop-color="white" stop-opacity="0.68"/>
</linearGradient>
<linearGradient id="paint3_linear" x1="490.735" y1="1067.69" x2="850.18" y2="317.337" gradientUnits="userSpaceOnUse">
<stop stop-color="white"/>
<stop offset="1" stop-color="white" stop-opacity="0.68"/>
</linearGradient>
<linearGradient id="paint4_linear" x1="479.912" y1="1062.5" x2="839.358" y2="312.153" gradientUnits="userSpaceOnUse">
<stop stop-color="white"/>
<stop offset="1" stop-color="white" stop-opacity="0.68"/>
</linearGradient>
<linearGradient id="paint5_linear" x1="467.286" y1="1056.45" x2="826.732" y2="306.104" gradientUnits="userSpaceOnUse">
<stop stop-color="white"/>
<stop offset="1" stop-color="white" stop-opacity="0.68"/>
</linearGradient>
<linearGradient id="paint6_linear" x1="455.562" y1="1050.84" x2="815.007" y2="300.488" gradientUnits="userSpaceOnUse">
<stop stop-color="white"/>
<stop offset="1" stop-color="white" stop-opacity="0.68"/>
</linearGradient>
<linearGradient id="paint7_linear" x1="442.936" y1="1044.79" x2="802.381" y2="294.44" gradientUnits="userSpaceOnUse">
<stop stop-color="white"/>
<stop offset="1" stop-color="white" stop-opacity="0.68"/>
</linearGradient>
<linearGradient id="paint8_linear" x1="433.334" y1="1032.43" x2="792.779" y2="282.078" gradientUnits="userSpaceOnUse">
<stop stop-color="white"/>
<stop offset="1" stop-color="white" stop-opacity="0.68"/>
</linearGradient>
<linearGradient id="paint9_linear" x1="420.708" y1="1026.38" x2="780.153" y2="276.03" gradientUnits="userSpaceOnUse">
<stop stop-color="white"/>
<stop offset="1" stop-color="white" stop-opacity="0.68"/>
</linearGradient>
<linearGradient id="paint10_linear" x1="408.984" y1="1020.76" x2="768.429" y2="270.414" gradientUnits="userSpaceOnUse">
<stop stop-color="white"/>
<stop offset="1" stop-color="white" stop-opacity="0.68"/>
</linearGradient>
<linearGradient id="paint11_linear" x1="396.358" y1="1014.71" x2="755.803" y2="264.365" gradientUnits="userSpaceOnUse">
<stop stop-color="white"/>
<stop offset="1" stop-color="white" stop-opacity="0.68"/>
</linearGradient>
<linearGradient id="paint12_linear" x1="385.535" y1="1009.53" x2="744.981" y2="259.181" gradientUnits="userSpaceOnUse">
<stop stop-color="white"/>
<stop offset="1" stop-color="white" stop-opacity="0.68"/>
</linearGradient>
<linearGradient id="paint13_linear" x1="372.909" y1="1003.48" x2="732.355" y2="253.133" gradientUnits="userSpaceOnUse">
<stop stop-color="white"/>
<stop offset="1" stop-color="white" stop-opacity="0.68"/>
</linearGradient>
<linearGradient id="paint14_linear" x1="361.185" y1="997.865" x2="720.631" y2="247.516" gradientUnits="userSpaceOnUse">
<stop stop-color="white"/>
<stop offset="1" stop-color="white" stop-opacity="0.68"/>
</linearGradient>
<linearGradient id="paint15_linear" x1="348.559" y1="991.817" x2="708.004" y2="241.468" gradientUnits="userSpaceOnUse">
<stop stop-color="white"/>
<stop offset="1" stop-color="white" stop-opacity="0.68"/>
</linearGradient>
<linearGradient id="paint16_linear" x1="333.227" y1="984.472" x2="692.673" y2="234.124" gradientUnits="userSpaceOnUse">
<stop stop-color="white"/>
<stop offset="1" stop-color="white" stop-opacity="0.68"/>
</linearGradient>
<linearGradient id="paint17_linear" x1="320.601" y1="978.424" x2="680.047" y2="228.075" gradientUnits="userSpaceOnUse">
<stop stop-color="white"/>
<stop offset="1" stop-color="white" stop-opacity="0.68"/>
</linearGradient>
<linearGradient id="paint18_linear" x1="308.877" y1="972.807" x2="668.323" y2="222.459" gradientUnits="userSpaceOnUse">
<stop stop-color="white"/>
<stop offset="1" stop-color="white" stop-opacity="0.68"/>
</linearGradient>
<linearGradient id="paint19_linear" x1="296.251" y1="966.759" x2="655.696" y2="216.41" gradientUnits="userSpaceOnUse">
<stop stop-color="white"/>
<stop offset="1" stop-color="white" stop-opacity="0.68"/>
</linearGradient>
<linearGradient id="paint20_linear" x1="285.429" y1="961.575" x2="644.874" y2="211.226" gradientUnits="userSpaceOnUse">
<stop stop-color="white"/>
<stop offset="1" stop-color="white" stop-opacity="0.68"/>
</linearGradient>
<linearGradient id="paint21_linear" x1="272.803" y1="955.526" x2="632.248" y2="205.178" gradientUnits="userSpaceOnUse">
<stop stop-color="white"/>
<stop offset="1" stop-color="white" stop-opacity="0.68"/>
</linearGradient>
<linearGradient id="paint22_linear" x1="261.079" y1="949.91" x2="620.524" y2="199.561" gradientUnits="userSpaceOnUse">
<stop stop-color="white"/>
<stop offset="1" stop-color="white" stop-opacity="0.68"/>
</linearGradient>
<linearGradient id="paint23_linear" x1="248.452" y1="943.862" x2="607.898" y2="193.513" gradientUnits="userSpaceOnUse">
<stop stop-color="white"/>
<stop offset="1" stop-color="white" stop-opacity="0.68"/>
</linearGradient>
</defs>
</svg>
