<svg width="182" height="99" viewBox="0 0 182 99" fill="none" xmlns="http://www.w3.org/2000/svg">
<rect x="108" y="13" width="70" height="70" rx="4" fill="#6A1FB7"/>
<path d="M12.6 48.625C11.3667 48.625 10.225 48.3167 9.175 47.7C8.125 47.0833 7.29167 46.25 6.675 45.2C6.05833 44.15 5.75 43.0083 5.75 41.775V35.175H10.35V41.525C10.35 42.1417 10.5667 42.6667 11 43.1C11.45 43.55 11.9833 43.775 12.6 43.775H18.5C18.7667 43.775 18.9667 43.7 19.1 43.55C19.25 43.4 19.325 43.2 19.325 42.95C19.325 42.7667 19.2667 42.6 19.15 42.45C19.05 42.3 18.9083 42.2083 18.725 42.175L11.9 40.6V36.875C11.9 35.8417 12.1667 34.875 12.7 33.975C13.25 33.075 13.975 32.3583 14.875 31.825C15.7917 31.2917 16.7833 31.025 17.85 31.025H23.025V35.625H17.8C17.45 35.625 17.1417 35.7583 16.875 36.025C16.625 36.275 16.5 36.575 16.5 36.925L18.9 37.475L20.175 37.775C21.325 38.1083 22.2583 38.7667 22.975 39.75C23.7083 40.7333 24.075 41.85 24.075 43.1C24.075 44.1 23.825 45.025 23.325 45.875C22.825 46.725 22.15 47.3917 21.3 47.875C20.45 48.375 19.5167 48.625 18.5 48.625H12.6ZM30.5021 43C29.5688 43 28.7188 42.775 27.9521 42.325C27.1855 41.8583 26.5771 41.2417 26.1271 40.475C25.6771 39.6917 25.4521 38.8417 25.4521 37.925V25.925H30.0521V37.625C30.0521 37.7917 30.0938 37.925 30.1771 38.025C30.2771 38.1083 30.4021 38.15 30.5521 38.15H32.0771C32.2438 38.15 32.3271 38.2333 32.3271 38.4V42.75C32.3271 42.9167 32.2438 43 32.0771 43H30.5021ZM40.5502 25.725V29.6H36.6752V25.725H40.5502ZM45.1502 38.15C45.3169 38.15 45.4002 38.2333 45.4002 38.4V42.75C45.4002 42.9167 45.3169 43 45.1502 43H32.0752C31.9085 43 31.8252 42.9167 31.8252 42.75V38.4C31.8252 38.2333 31.9085 38.15 32.0752 38.15H32.8252C32.7585 37.8167 32.7252 37.4333 32.7252 37C32.7252 35.9333 32.9835 34.975 33.5002 34.125C34.0335 33.2583 34.7502 32.5833 35.6502 32.1C36.5502 31.6 37.5335 31.35 38.6002 31.35C39.6669 31.35 40.6502 31.6 41.5502 32.1C42.4502 32.5833 43.1585 33.2583 43.6752 34.125C44.2085 34.975 44.4752 35.9333 44.4752 37C44.4752 37.4333 44.4419 37.8167 44.3752 38.15H45.1502ZM37.5752 37.175C37.5752 37.475 37.6669 37.7167 37.8502 37.9C38.0335 38.0667 38.2835 38.15 38.6002 38.15C38.9169 38.15 39.1669 38.0667 39.3502 37.9C39.5335 37.7167 39.6252 37.475 39.6252 37.175C39.6252 36.8917 39.5335 36.6583 39.3502 36.475C39.1669 36.2917 38.9169 36.2 38.6002 36.2C38.2835 36.2 38.0335 36.2917 37.8502 36.475C37.6669 36.6583 37.5752 36.8917 37.5752 37.175ZM54.3111 38.15C54.4778 38.15 54.5611 38.2333 54.5611 38.4V42.75C54.5611 42.9167 54.4778 43 54.3111 43H52.5611C51.9611 43 51.4361 42.9333 50.9861 42.8C50.5528 42.6667 50.1361 42.45 49.7361 42.15C49.3361 42.45 48.9111 42.6667 48.4611 42.8C48.0278 42.9333 47.5111 43 46.9111 43H45.1611C44.9945 43 44.9111 42.9167 44.9111 42.75V38.4C44.9111 38.2333 44.9945 38.15 45.1611 38.15H46.9111C47.0778 38.15 47.2028 38.1 47.2861 38C47.3861 37.9 47.4361 37.7667 47.4361 37.6V32.85H52.0361V37.6C52.0361 37.7667 52.0778 37.9 52.1611 38C52.2611 38.1 52.3945 38.15 52.5611 38.15H54.3111ZM45.8611 45H53.6111V48.875H45.8611V45ZM54.3164 43C54.1497 43 54.0664 42.9167 54.0664 42.75V38.4C54.0664 38.2333 54.1497 38.15 54.3164 38.15H55.3164C55.4831 38.15 55.6081 38.1 55.6914 38C55.7914 37.9 55.8414 37.7667 55.8414 37.6V32.85H60.4414V37.6C60.4414 37.7667 60.4831 37.9 60.5664 38C60.6664 38.1 60.7997 38.15 60.9664 38.15H61.9664C62.1331 38.15 62.2164 38.2333 62.2164 38.4V42.75C62.2164 42.9167 62.1331 43 61.9664 43H60.9664C60.3664 43 59.8414 42.9333 59.3914 42.8C58.9581 42.6667 58.5414 42.45 58.1414 42.15C57.7414 42.45 57.3164 42.6667 56.8664 42.8C56.4331 42.9333 55.9164 43 55.3164 43H54.3164ZM56.3414 44.975H60.2164V48.85H56.3414V44.975ZM61.958 43C61.7913 43 61.708 42.9167 61.708 42.75V38.4C61.708 38.2333 61.7913 38.15 61.958 38.15H62.958C63.1247 38.15 63.2497 38.1 63.333 38C63.433 37.9 63.483 37.7667 63.483 37.6V25.925H68.083V37.6C68.083 37.7667 68.1247 37.9 68.208 38C68.308 38.1 68.4413 38.15 68.608 38.15H69.608C69.7747 38.15 69.858 38.2333 69.858 38.4V42.75C69.858 42.9167 69.7747 43 69.608 43H68.608C67.4413 43 66.4997 42.6417 65.783 41.925C65.0663 42.6417 64.1247 43 62.958 43H61.958ZM86.9246 32.15V43H81.8746C80.7579 43 79.8329 42.65 79.0996 41.95C78.3663 42.6833 77.4163 43.05 76.2496 43.05C75.0829 43.05 74.1329 42.6833 73.3996 41.95C72.6663 42.65 71.7329 43 70.5996 43H69.5996C69.4329 43 69.3496 42.9167 69.3496 42.75V38.4C69.3496 38.2333 69.4329 38.15 69.5996 38.15H70.5996C70.7663 38.15 70.8913 38.1 70.9746 38C71.0746 37.9 71.1246 37.7667 71.1246 37.6V32.85H75.7246V37.65C75.7246 37.8167 75.7663 37.95 75.8496 38.05C75.9496 38.15 76.0829 38.2 76.2496 38.2C76.4163 38.2 76.5413 38.15 76.6246 38.05C76.7246 37.95 76.7746 37.8167 76.7746 37.65V32.85H81.3746V37.6C81.3746 37.7667 81.4163 37.9 81.4996 38C81.5996 38.1 81.7246 38.15 81.8746 38.15H82.3246V32.15H86.9246Z" fill="#6A1FB7"/>
<path d="M144.88 59.552C146.181 59.552 147.483 59.328 148.784 58.88C150.085 58.4107 151.248 57.7173 152.272 56.8C152.421 56.672 152.592 56.5653 152.784 56.48C152.997 56.3947 153.211 56.352 153.424 56.352C153.744 56.352 153.989 56.4693 154.16 56.704L155.952 59.264C156.059 59.4347 156.112 59.5947 156.112 59.744C156.112 60.0427 155.995 60.32 155.76 60.576C155.525 60.832 155.323 61.0347 155.152 61.184C153.744 62.2293 152.187 63.0827 150.48 63.744C148.773 64.4053 146.907 64.736 144.88 64.736C142.619 64.736 140.485 64.3093 138.48 63.456C136.496 62.6027 134.757 61.44 133.264 59.968C131.792 58.4747 130.629 56.736 129.776 54.752C128.923 52.7467 128.496 50.6133 128.496 48.352C128.496 46.0907 128.923 43.968 129.776 41.984C130.629 39.9787 131.792 38.24 133.264 36.768C134.757 35.2747 136.496 34.1013 138.48 33.248C140.485 32.3733 142.619 31.936 144.88 31.936C146.565 31.936 148.208 32.2027 149.808 32.736C151.408 33.248 153.061 34.08 154.768 35.232C155.472 35.744 155.824 36.2347 155.824 36.704C155.824 36.9173 155.771 37.0987 155.664 37.248L153.872 39.936C153.68 40.2347 153.403 40.384 153.04 40.384C152.933 40.384 152.795 40.3307 152.624 40.224C152.453 40.096 152.261 39.9467 152.048 39.776C151.024 38.9653 149.925 38.3253 148.752 37.856C147.579 37.3653 146.288 37.12 144.88 37.12C143.344 37.12 141.893 37.4187 140.528 38.016C139.163 38.592 137.968 39.392 136.944 40.416C135.941 41.44 135.141 42.6347 134.544 44C133.968 45.3653 133.68 46.816 133.68 48.352C133.68 49.888 133.968 51.3387 134.544 52.704C135.141 54.0693 135.941 55.264 136.944 56.288C137.968 57.2907 139.163 58.0907 140.528 58.688C141.893 59.264 143.344 59.552 144.88 59.552ZM144.816 44.576C145.349 44.576 145.84 44.6827 146.288 44.896C146.757 45.088 147.163 45.3547 147.504 45.696C147.845 46.0373 148.112 46.4427 148.304 46.912C148.517 47.36 148.624 47.8507 148.624 48.384C148.624 48.9173 148.517 49.4187 148.304 49.888C148.112 50.336 147.845 50.7307 147.504 51.072C147.163 51.392 146.757 51.648 146.288 51.84C145.84 52.032 145.349 52.128 144.816 52.128C144.283 52.128 143.781 52.032 143.312 51.84C142.864 51.6267 142.469 51.36 142.128 51.04C141.787 50.6987 141.509 50.304 141.296 49.856C141.104 49.3867 141.008 48.896 141.008 48.384C141.008 47.8507 141.104 47.36 141.296 46.912C141.509 46.4427 141.787 46.0373 142.128 45.696C142.469 45.3547 142.864 45.088 143.312 44.896C143.781 44.6827 144.283 44.576 144.816 44.576Z" fill="white"/>
<path d="M15.1177 71.9125C15.201 71.9125 15.2427 71.9542 15.2427 72.0375V72.875C15.2427 72.9583 15.201 73 15.1177 73H14.1427C14.3427 73.3083 14.4427 73.6542 14.4427 74.0375C14.4427 74.4208 14.3468 74.775 14.1552 75.1C13.9635 75.4333 13.7052 75.6958 13.3802 75.8875C13.0552 76.0792 12.701 76.175 12.3177 76.175H9.58018C9.08018 76.175 8.61768 76.05 8.19268 75.8C7.76768 75.55 7.43018 75.2125 7.18018 74.7875C6.93851 74.3625 6.81768 73.8958 6.81768 73.3875V70.7625H7.84268V73.3375C7.84268 73.6542 7.91768 73.9458 8.06768 74.2125C8.22601 74.4792 8.43851 74.6875 8.70518 74.8375C8.97184 74.9958 9.26351 75.075 9.58018 75.075H12.3302C12.6218 75.075 12.8677 74.975 13.0677 74.775C13.2677 74.575 13.3677 74.3292 13.3677 74.0375C13.3677 73.7542 13.2635 73.5083 13.0552 73.3C12.8552 73.1 12.6135 73 12.3302 73H9.98018V71.9125H15.1177ZM19.2221 68.225C19.6637 68.225 20.0721 68.3292 20.4471 68.5375C20.8221 68.7458 21.1179 69.0292 21.3346 69.3875C21.5512 69.7458 21.6596 70.1458 21.6596 70.5875C21.6596 71.0292 21.5512 71.4375 21.3346 71.8125C21.1179 72.1875 20.8221 72.4833 20.4471 72.7C20.0721 72.9167 19.6637 73.025 19.2221 73.025C18.8471 73.025 18.5012 72.9458 18.1846 72.7875C17.8679 72.6292 17.6012 72.4083 17.3846 72.125C17.2179 72.3917 16.9971 72.6042 16.7221 72.7625C16.4554 72.9208 16.1554 73 15.8221 73H15.1221C15.0387 73 14.9971 72.9583 14.9971 72.875V72.0375C14.9971 71.9542 15.0387 71.9125 15.1221 71.9125H15.8221C16.1137 71.9125 16.3596 71.8125 16.5596 71.6125C16.7679 71.4042 16.8721 71.1583 16.8721 70.875V69.2625H16.1346V68.225H19.2221ZM19.2221 71.9375C19.5971 71.9375 19.9137 71.8083 20.1721 71.55C20.4387 71.2833 20.5721 70.9625 20.5721 70.5875C20.5721 70.2208 20.4387 69.9083 20.1721 69.65C19.9137 69.3917 19.5971 69.2625 19.2221 69.2625H17.8846V70.5875C17.8846 70.9625 18.0137 71.2833 18.2721 71.55C18.5304 71.8083 18.8471 71.9375 19.2221 71.9375ZM25.7599 71.9125C25.8432 71.9125 25.8849 71.9542 25.8849 72.0375V72.875C25.8849 72.9583 25.8432 73 25.7599 73H25.1849C24.7765 73 24.4265 72.8875 24.1349 72.6625V72.7625C24.1349 73.3792 24.0432 73.8875 23.8599 74.2875C23.6765 74.6875 23.3932 75.0292 23.0099 75.3125C22.6265 75.6042 22.0765 75.925 21.3599 76.275L20.9724 75.4125C21.589 75.0708 22.0307 74.8042 22.2974 74.6125C22.564 74.4208 22.764 74.1833 22.8974 73.9C23.039 73.625 23.1099 73.2458 23.1099 72.7625V68.95H24.1349V70.875C24.1349 71.1583 24.2349 71.4042 24.4349 71.6125C24.6432 71.8125 24.8932 71.9125 25.1849 71.9125H25.7599ZM26.3294 65.925L28.5294 63.6L29.0419 64.125L26.8419 66.45L26.3294 65.925ZM25.7544 73C25.6711 73 25.6294 72.9583 25.6294 72.875V72.0375C25.6294 71.9542 25.6711 71.9125 25.7544 71.9125H29.7544C30.0961 71.9125 30.3877 71.7958 30.6294 71.5625C30.8711 71.3208 30.9919 71.025 30.9919 70.675C30.9919 70.2167 30.7711 69.8542 30.3294 69.5875L27.3419 67.625V66.775L29.7419 64.2375L30.4544 64.9L28.3669 67.075L31.0044 68.8C31.3211 69.0083 31.5711 69.2792 31.7544 69.6125C31.9377 69.9375 32.0294 70.3 32.0294 70.7C32.0294 71.1167 31.9252 71.5 31.7169 71.85C31.5169 72.2 31.2419 72.4792 30.8919 72.6875C30.5419 72.8958 30.1627 73 29.7544 73H25.7544ZM36.1236 71.9125C36.207 71.9125 36.2486 71.9542 36.2486 72.0375V72.875C36.2486 72.9583 36.207 73 36.1236 73H35.5486C35.1403 73 34.7903 72.8875 34.4986 72.6625V72.7625C34.4986 73.3792 34.407 73.8875 34.2236 74.2875C34.0403 74.6875 33.757 75.0292 33.3736 75.3125C32.9903 75.6042 32.4403 75.925 31.7236 76.275L31.3361 75.4125C31.9528 75.0708 32.3945 74.8042 32.6611 74.6125C32.9278 74.4208 33.1278 74.1833 33.2611 73.9C33.4028 73.625 33.4736 73.2458 33.4736 72.7625V68.95H34.4986V70.875C34.4986 71.1583 34.5986 71.4042 34.7986 71.6125C35.007 71.8125 35.257 71.9125 35.5486 71.9125H36.1236ZM44.7682 68.5625V73H42.9557C42.614 73 42.3098 72.925 42.0432 72.775C41.7765 72.6167 41.5598 72.4042 41.3932 72.1375C41.2265 72.4125 41.0098 72.6292 40.7432 72.7875C40.4765 72.9458 40.1723 73.025 39.8307 73.025C39.4807 73.025 39.1682 72.9458 38.8932 72.7875C38.6265 72.6292 38.4098 72.4125 38.2432 72.1375C38.0848 72.4042 37.8682 72.6167 37.5932 72.775C37.3265 72.925 37.0265 73 36.6932 73H36.1182C36.0348 73 35.9932 72.9583 35.9932 72.875V72.0375C35.9932 71.9542 36.0348 71.9125 36.1182 71.9125H36.6932C36.9848 71.9125 37.2307 71.8125 37.4307 71.6125C37.639 71.4042 37.7432 71.1583 37.7432 70.875V68.95H38.7807V70.9C38.7807 71.1917 38.8807 71.4375 39.0807 71.6375C39.289 71.8375 39.539 71.9375 39.8307 71.9375C40.114 71.9375 40.3557 71.8375 40.5557 71.6375C40.764 71.4292 40.8682 71.1833 40.8682 70.9V68.95H41.8932V70.875C41.8932 71.1583 41.9973 71.4042 42.2057 71.6125C42.414 71.8125 42.664 71.9125 42.9557 71.9125H43.7432V68.5625H44.7682ZM68.8085 71.9125C68.8918 71.9125 68.9335 71.9542 68.9335 72.0375V72.875C68.9335 72.9583 68.8918 73 68.8085 73H68.221C67.8877 73 67.5877 72.925 67.321 72.775C67.0543 72.6167 66.8377 72.4042 66.671 72.1375C66.4627 72.4042 66.2043 72.6167 65.896 72.775C65.5877 72.925 65.2585 73 64.9085 73H60.4835C59.9835 73 59.521 72.875 59.096 72.625C58.671 72.375 58.3335 72.0417 58.0835 71.625C57.8418 71.2 57.721 70.7333 57.721 70.225V68.9625H58.746V70.1625C58.746 70.4792 58.821 70.775 58.971 71.05C59.1293 71.3167 59.3418 71.5292 59.6085 71.6875C59.8752 71.8375 60.1668 71.9125 60.4835 71.9125H64.921C65.2543 71.9125 65.5418 71.7958 65.7835 71.5625C66.0252 71.3208 66.146 71.025 66.146 70.675C66.146 70.2167 65.9293 69.8542 65.496 69.5875L62.5085 67.625V66.775L64.9085 64.2375L65.621 64.9L63.5335 67.075L66.1585 68.8C66.4835 69.0083 66.7335 69.275 66.9085 69.6C67.0918 69.925 67.1835 70.2875 67.1835 70.6875V70.875C67.1752 71.1583 67.2752 71.4042 67.4835 71.6125C67.6918 71.8125 67.9377 71.9125 68.221 71.9125H68.8085ZM68.8086 73C68.7253 73 68.6836 72.9583 68.6836 72.875V72.0375C68.6836 71.9542 68.7253 71.9125 68.8086 71.9125H71.1836C71.4753 71.9125 71.7211 71.8083 71.9211 71.6C72.1294 71.3917 72.2336 71.1375 72.2336 70.8375V68.5625H73.2711V70.9C73.2711 71.2833 73.1753 71.6375 72.9836 71.9625C72.8003 72.2792 72.5461 72.5333 72.2211 72.725C71.9044 72.9083 71.5586 73 71.1836 73H68.8086ZM69.0961 74.175H70.1961V75.2875H69.0961V74.175ZM70.8586 74.175H71.9586V75.2875H70.8586V74.175ZM74.7566 66.6625H75.8566V67.7625H74.7566V66.6625ZM72.6691 75.4125C73.2858 75.0708 73.7275 74.8042 73.9941 74.6125C74.2608 74.4208 74.4608 74.1833 74.5941 73.9C74.7358 73.625 74.8066 73.2458 74.8066 72.7625V68.95H75.8316V72.7625C75.8316 73.3792 75.74 73.8875 75.5566 74.2875C75.3733 74.6875 75.09 75.0292 74.7066 75.3125C74.3233 75.6042 73.7733 75.925 73.0566 76.275L72.6691 75.4125ZM82.8604 71.9125C82.9437 71.9125 82.9854 71.9542 82.9854 72.0375V72.875C82.9854 72.9583 82.9437 73 82.8604 73H82.1479C82.0979 73.55 81.9395 74.0083 81.6729 74.375C81.4062 74.7417 81.0479 75.0542 80.5979 75.3125C80.1479 75.5792 79.4895 75.9 78.6229 76.275L78.3104 75.3625C79.1104 75.0208 79.6937 74.7458 80.0604 74.5375C80.4354 74.3292 80.7062 74.1083 80.8729 73.875C81.0395 73.65 81.1229 73.3583 81.1229 73H79.7854C79.3437 73 78.9354 72.8958 78.5604 72.6875C78.1937 72.4792 77.8979 72.1958 77.6729 71.8375C77.4562 71.4792 77.3479 71.0792 77.3479 70.6375C77.3479 70.1958 77.4562 69.7917 77.6729 69.425C77.8979 69.05 78.1937 68.7542 78.5604 68.5375C78.9354 68.3125 79.3437 68.2 79.7854 68.2C80.2187 68.2 80.6187 68.3125 80.9854 68.5375C81.352 68.7542 81.6395 69.05 81.8479 69.425C82.0562 69.7917 82.1604 70.1958 82.1604 70.6375V71.9125H82.8604ZM81.1229 70.625C81.1229 70.25 80.9937 69.9333 80.7354 69.675C80.477 69.4083 80.1604 69.275 79.7854 69.275C79.4104 69.275 79.0937 69.4083 78.8354 69.675C78.577 69.9333 78.4479 70.25 78.4479 70.625C78.4479 71 78.577 71.3167 78.8354 71.575C79.0937 71.8333 79.4104 71.9625 79.7854 71.9625H81.1229V70.625ZM86.9589 68.225C87.4006 68.225 87.8089 68.3292 88.1839 68.5375C88.5589 68.7458 88.8547 69.0292 89.0714 69.3875C89.2881 69.7458 89.3964 70.1458 89.3964 70.5875C89.3964 71.0292 89.2881 71.4375 89.0714 71.8125C88.8547 72.1875 88.5589 72.4833 88.1839 72.7C87.8089 72.9167 87.4006 73.025 86.9589 73.025C86.5839 73.025 86.2381 72.9458 85.9214 72.7875C85.6047 72.6292 85.3381 72.4083 85.1214 72.125C84.9547 72.3917 84.7339 72.6042 84.4589 72.7625C84.1922 72.9208 83.8922 73 83.5589 73H82.8589C82.7756 73 82.7339 72.9583 82.7339 72.875V72.0375C82.7339 71.9542 82.7756 71.9125 82.8589 71.9125H83.5589C83.8506 71.9125 84.0964 71.8125 84.2964 71.6125C84.5047 71.4042 84.6089 71.1583 84.6089 70.875V69.2625H83.8714V68.225H86.9589ZM86.9589 71.9375C87.3339 71.9375 87.6506 71.8083 87.9089 71.55C88.1756 71.2833 88.3089 70.9625 88.3089 70.5875C88.3089 70.2208 88.1756 69.9083 87.9089 69.65C87.6506 69.3917 87.3339 69.2625 86.9589 69.2625H85.6214V70.5875C85.6214 70.9625 85.7506 71.2833 86.0089 71.55C86.2672 71.8083 86.5839 71.9375 86.9589 71.9375Z" fill="black"/>
<path d="M49.7093 75.3625C50.5093 75.0208 51.0926 74.7458 51.4593 74.5375C51.8343 74.3292 52.1051 74.1083 52.2718 73.875C52.4384 73.65 52.5218 73.3583 52.5218 73H51.1843C50.7426 73 50.3343 72.8958 49.9593 72.6875C49.5926 72.4792 49.2968 72.1958 49.0718 71.8375C48.8551 71.4792 48.7468 71.0792 48.7468 70.6375C48.7468 70.1958 48.8551 69.7917 49.0718 69.425C49.2968 69.05 49.5926 68.7542 49.9593 68.5375C50.3343 68.3125 50.7426 68.2 51.1843 68.2C51.6176 68.2 52.0176 68.3125 52.3843 68.5375C52.7509 68.7542 53.0384 69.05 53.2468 69.425C53.4551 69.7917 53.5593 70.1958 53.5593 70.6375V72.6125C53.5593 73.2708 53.4343 73.8042 53.1843 74.2125C52.9343 74.6208 52.5759 74.9625 52.1093 75.2375C51.6509 75.5208 50.9551 75.8667 50.0218 76.275L49.7093 75.3625ZM52.5218 70.625C52.5218 70.25 52.3926 69.9333 52.1343 69.675C51.8759 69.4083 51.5593 69.275 51.1843 69.275C50.8093 69.275 50.4926 69.4083 50.2343 69.675C49.9759 69.9333 49.8468 70.25 49.8468 70.625C49.8468 71 49.9759 71.3167 50.2343 71.575C50.4926 71.8333 50.8093 71.9625 51.1843 71.9625H52.5218V70.625Z" fill="#FF7144"/>
</svg>
