<svg width="95" height="35" viewBox="0 0 95 35" fill="none" xmlns="http://www.w3.org/2000/svg">
<path d="M11.08 22.332C11.568 22.332 12.056 22.248 12.544 22.08C13.032 21.904 13.468 21.644 13.852 21.3C13.908 21.252 13.972 21.212 14.044 21.18C14.124 21.148 14.204 21.132 14.284 21.132C14.404 21.132 14.496 21.176 14.56 21.264L15.232 22.224C15.272 22.288 15.292 22.348 15.292 22.404C15.292 22.516 15.248 22.62 15.16 22.716C15.072 22.812 14.996 22.888 14.932 22.944C14.404 23.336 13.82 23.656 13.18 23.904C12.54 24.152 11.84 24.276 11.08 24.276C10.232 24.276 9.432 24.116 8.68 23.796C7.936 23.476 7.284 23.04 6.724 22.488C6.172 21.928 5.736 21.276 5.416 20.532C5.096 19.78 4.936 18.98 4.936 18.132C4.936 17.284 5.096 16.488 5.416 15.744C5.736 14.992 6.172 14.34 6.724 13.788C7.284 13.228 7.936 12.788 8.68 12.468C9.432 12.14 10.232 11.976 11.08 11.976C11.712 11.976 12.328 12.076 12.928 12.276C13.528 12.468 14.148 12.78 14.788 13.212C15.052 13.404 15.184 13.588 15.184 13.764C15.184 13.844 15.164 13.912 15.124 13.968L14.452 14.976C14.38 15.088 14.276 15.144 14.14 15.144C14.1 15.144 14.048 15.124 13.984 15.084C13.92 15.036 13.848 14.98 13.768 14.916C13.384 14.612 12.972 14.372 12.532 14.196C12.092 14.012 11.608 13.92 11.08 13.92C10.504 13.92 9.96 14.032 9.448 14.256C8.936 14.472 8.488 14.772 8.104 15.156C7.728 15.54 7.428 15.988 7.204 16.5C6.988 17.012 6.88 17.556 6.88 18.132C6.88 18.708 6.988 19.252 7.204 19.764C7.428 20.276 7.728 20.724 8.104 21.108C8.488 21.484 8.936 21.784 9.448 22.008C9.96 22.224 10.504 22.332 11.08 22.332ZM11.056 16.716C11.256 16.716 11.44 16.756 11.608 16.836C11.784 16.908 11.936 17.008 12.064 17.136C12.192 17.264 12.292 17.416 12.364 17.592C12.444 17.76 12.484 17.944 12.484 18.144C12.484 18.344 12.444 18.532 12.364 18.708C12.292 18.876 12.192 19.024 12.064 19.152C11.936 19.272 11.784 19.368 11.608 19.44C11.44 19.512 11.256 19.548 11.056 19.548C10.856 19.548 10.668 19.512 10.492 19.44C10.324 19.36 10.176 19.26 10.048 19.14C9.92 19.012 9.816 18.864 9.736 18.696C9.664 18.52 9.628 18.336 9.628 18.144C9.628 17.944 9.664 17.76 9.736 17.592C9.816 17.416 9.92 17.264 10.048 17.136C10.176 17.008 10.324 16.908 10.492 16.836C10.668 16.756 10.856 16.716 11.056 16.716ZM25.6298 17.028C25.7418 17.028 25.8378 17.068 25.9178 17.148C25.9978 17.228 26.0378 17.336 26.0378 17.472V18.732C26.0378 18.852 26.0018 18.952 25.9298 19.032C25.8578 19.112 25.7578 19.152 25.6298 19.152H19.9178V21.864H26.0378C26.1498 21.864 26.2458 21.908 26.3258 21.996C26.4138 22.076 26.4578 22.184 26.4578 22.32V23.58C26.4578 23.7 26.4178 23.8 26.3378 23.88C26.2658 23.96 26.1658 24 26.0378 24H18.1778C17.9538 23.992 17.8418 23.852 17.8418 23.58V12.648C17.8418 12.368 17.9818 12.228 18.2618 12.228H25.7738C25.9018 12.228 26.0018 12.268 26.0738 12.348C26.1458 12.428 26.1818 12.528 26.1818 12.648V13.908C26.1818 14.044 26.1418 14.152 26.0618 14.232C25.9818 14.312 25.8858 14.352 25.7738 14.352H19.9178V17.028H25.6298ZM37.4106 21.888C37.5226 21.888 37.6186 21.932 37.6986 22.02C37.7866 22.1 37.8306 22.208 37.8306 22.344V23.58C37.8306 23.7 37.7906 23.8 37.7106 23.88C37.6386 23.96 37.5386 24 37.4106 24H29.6346C29.3546 24 29.2146 23.86 29.2146 23.58V12.648C29.2146 12.528 29.2546 12.428 29.3346 12.348C29.4146 12.268 29.5226 12.228 29.6586 12.228H30.8706C30.9826 12.228 31.0786 12.264 31.1586 12.336C31.2466 12.408 31.2906 12.512 31.2906 12.648V21.888H37.4106ZM47.7079 17.028C47.8199 17.028 47.9159 17.068 47.9959 17.148C48.0759 17.228 48.1159 17.336 48.1159 17.472V18.732C48.1159 18.852 48.0799 18.952 48.0079 19.032C47.9359 19.112 47.8359 19.152 47.7079 19.152H41.9959V21.864H48.1159C48.2279 21.864 48.3239 21.908 48.4039 21.996C48.4919 22.076 48.5359 22.184 48.5359 22.32V23.58C48.5359 23.7 48.4959 23.8 48.4159 23.88C48.3439 23.96 48.2439 24 48.1159 24H40.2559C40.0319 23.992 39.9199 23.852 39.9199 23.58V12.648C39.9199 12.368 40.0599 12.228 40.3399 12.228H47.8519C47.9799 12.228 48.0799 12.268 48.1519 12.348C48.2239 12.428 48.2599 12.528 48.2599 12.648V13.908C48.2599 14.044 48.2199 14.152 48.1399 14.232C48.0599 14.312 47.9639 14.352 47.8519 14.352H41.9959V17.028H47.7079ZM53.4168 16.92H53.8368L51.1848 12.528C51.1448 12.448 51.1248 12.392 51.1248 12.36C51.1248 12.32 51.1488 12.288 51.1968 12.264C51.2528 12.24 51.3048 12.228 51.3528 12.228H56.7768C57.2648 12.228 57.7248 12.32 58.1568 12.504C58.5888 12.68 58.9648 12.924 59.2848 13.236C59.6048 13.54 59.8568 13.892 60.0408 14.292C60.2248 14.692 60.3168 15.112 60.3168 15.552C60.3168 15.96 60.2328 16.344 60.0648 16.704C59.8968 17.064 59.6928 17.38 59.4528 17.652C59.8608 18.036 60.1848 18.48 60.4248 18.984C60.6728 19.488 60.7968 20.016 60.7968 20.568C60.7968 21.04 60.7008 21.484 60.5088 21.9C60.3168 22.316 60.0488 22.68 59.7048 22.992C59.3688 23.304 58.9608 23.552 58.4808 23.736C58.0088 23.912 57.4848 24 56.9088 24H51.7008C51.4288 24 51.2928 23.868 51.2928 23.604V16.908L53.4168 16.92ZM58.6968 20.484C58.6968 20.292 58.6568 20.092 58.5768 19.884C58.5048 19.668 58.4008 19.472 58.2648 19.296C58.1368 19.112 57.9848 18.96 57.8088 18.84C57.6328 18.72 57.4408 18.66 57.2328 18.66H53.4168V22.14H56.9568C57.2528 22.14 57.5088 22.092 57.7248 21.996C57.9488 21.892 58.1328 21.764 58.2768 21.612C58.4208 21.452 58.5248 21.272 58.5888 21.072C58.6608 20.872 58.6968 20.676 58.6968 20.484ZM58.2048 15.504C58.2048 15.312 58.1688 15.128 58.0968 14.952C58.0248 14.776 57.9208 14.624 57.7848 14.496C57.6568 14.36 57.4968 14.252 57.3048 14.172C57.1128 14.084 56.8968 14.036 56.6568 14.028L54.4248 14.04L56.1048 16.92H56.7768C56.9768 16.92 57.1608 16.88 57.3288 16.8C57.5048 16.72 57.6568 16.616 57.7848 16.488C57.9128 16.352 58.0128 16.2 58.0848 16.032C58.1648 15.864 58.2048 15.688 58.2048 15.504ZM65.9809 23.472C65.9809 23.824 65.8049 24 65.4529 24H64.4569C64.0889 24 63.9049 23.824 63.9049 23.472V12.732C63.9049 12.572 63.9569 12.444 64.0609 12.348C64.1649 12.252 64.2889 12.204 64.4329 12.204H65.4169C65.5929 12.204 65.7289 12.256 65.8249 12.36C65.9289 12.464 65.9809 12.588 65.9809 12.732V23.472ZM76.1243 18.876C76.2443 18.876 76.3443 18.916 76.4243 18.996C76.5043 19.076 76.5443 19.188 76.5443 19.332V20.592C76.5443 20.704 76.5083 20.804 76.4363 20.892C76.3643 20.972 76.2603 21.012 76.1243 21.012H71.6003V23.58C71.6003 23.716 71.5563 23.82 71.4683 23.892C71.3883 23.964 71.2923 24 71.1803 24H69.9683C69.8323 24 69.7243 23.96 69.6443 23.88C69.5643 23.8 69.5243 23.7 69.5243 23.58V12.648C69.5243 12.368 69.6643 12.228 69.9443 12.228H77.4563C77.5843 12.228 77.6843 12.268 77.7563 12.348C77.8283 12.428 77.8643 12.528 77.8643 12.648V13.908C77.8643 14.044 77.8243 14.152 77.7443 14.232C77.6643 14.312 77.5683 14.352 77.4563 14.352H71.6003V18.876H76.1243ZM85.3141 20.16V26.58C85.2981 26.86 85.1581 27 84.8941 27H83.6221C83.3261 27 83.1781 26.86 83.1781 26.58V20.16L78.8941 12.588C78.8221 12.468 78.7861 12.38 78.7861 12.324C78.7861 12.252 78.8461 12.216 78.9661 12.216H80.9101C81.0221 12.216 81.1141 12.252 81.1861 12.324C81.2661 12.388 81.3501 12.488 81.4381 12.624L84.2461 17.964L86.8021 12.636C86.9621 12.38 87.1821 12.24 87.4621 12.216H89.2861C89.4061 12.216 89.4661 12.256 89.4661 12.336C89.4661 12.392 89.4341 12.472 89.3701 12.576L85.3141 20.16Z" fill="#6A1FB7"/>
</svg>
